<mxfile host="app.diagrams.net" agent="Mozilla/5.0 (Windows NT 10.0; Win64; x64) AppleWebKit/537.36 (KHTML, like Gecko) Chrome/130.0.0.0 Safari/537.36" version="24.8.4">
  <diagram name="Page-1" id="0BV_9wrWU9VkHLlw-FYD">
    <mxGraphModel dx="1434" dy="746" grid="1" gridSize="10" guides="1" tooltips="1" connect="1" arrows="1" fold="1" page="1" pageScale="1" pageWidth="850" pageHeight="1100" math="0" shadow="0">
      <root>
        <mxCell id="0" />
        <mxCell id="1" parent="0" />
        <mxCell id="9rW0PvsvgF_CwK7unK1E-14" value="" style="rounded=0;whiteSpace=wrap;html=1;rotation=90;" parent="1" vertex="1">
          <mxGeometry x="42.92" y="133.53" width="719.79" height="478.17" as="geometry" />
        </mxCell>
        <mxCell id="9rW0PvsvgF_CwK7unK1E-18" value="Voting App" style="text;html=1;align=center;verticalAlign=middle;resizable=0;points=[];autosize=1;strokeColor=none;fillColor=none;" parent="1" vertex="1">
          <mxGeometry x="381.11" y="10" width="80" height="30" as="geometry" />
        </mxCell>
        <mxCell id="9rW0PvsvgF_CwK7unK1E-20" value="User" style="shape=umlActor;verticalLabelPosition=bottom;verticalAlign=top;html=1;outlineConnect=0;" parent="1" vertex="1">
          <mxGeometry x="10" y="180" width="110" height="150" as="geometry" />
        </mxCell>
        <mxCell id="9rW0PvsvgF_CwK7unK1E-33" value="Log in&lt;div&gt;as user&lt;/div&gt;" style="ellipse;whiteSpace=wrap;html=1;fillColor=#99FFFF;" parent="1" vertex="1">
          <mxGeometry x="200" y="190" width="100" height="70" as="geometry" />
        </mxCell>
        <mxCell id="9rW0PvsvgF_CwK7unK1E-34" value="Vote" style="ellipse;whiteSpace=wrap;html=1;fillColor=#99FFFF;" parent="1" vertex="1">
          <mxGeometry x="310" y="470" width="120" height="80" as="geometry" />
        </mxCell>
        <mxCell id="9rW0PvsvgF_CwK7unK1E-36" value="Check voting&lt;div&gt;status&lt;/div&gt;" style="ellipse;whiteSpace=wrap;html=1;fillColor=#33FF33;" parent="1" vertex="1">
          <mxGeometry x="480" y="550" width="120" height="80" as="geometry" />
        </mxCell>
        <mxCell id="9rW0PvsvgF_CwK7unK1E-37" value="Delete Polls" style="ellipse;whiteSpace=wrap;html=1;fillColor=#FFCCE6;" parent="1" vertex="1">
          <mxGeometry x="450" y="310" width="90" height="60" as="geometry" />
        </mxCell>
        <mxCell id="9rW0PvsvgF_CwK7unK1E-38" value="Create Polls" style="ellipse;whiteSpace=wrap;html=1;fillColor=#FFCCE6;" parent="1" vertex="1">
          <mxGeometry x="545" y="310" width="90" height="60" as="geometry" />
        </mxCell>
        <mxCell id="9rW0PvsvgF_CwK7unK1E-35" value="Browse Polls" style="ellipse;whiteSpace=wrap;html=1;fillColor=#99FFFF;" parent="1" vertex="1">
          <mxGeometry x="200" y="380" width="120" height="80" as="geometry" />
        </mxCell>
        <mxCell id="9rW0PvsvgF_CwK7unK1E-61" value="Verify password" style="ellipse;whiteSpace=wrap;html=1;strokeColor=#000000;fillColor=#B3FF66;" parent="1" vertex="1">
          <mxGeometry x="350" y="250" width="80" height="60" as="geometry" />
        </mxCell>
        <mxCell id="9rW0PvsvgF_CwK7unK1E-62" value="Display login error" style="ellipse;whiteSpace=wrap;html=1;fillColor=#FF6666;" parent="1" vertex="1">
          <mxGeometry x="350" y="160" width="80" height="60" as="geometry" />
        </mxCell>
        <mxCell id="9rW0PvsvgF_CwK7unK1E-63" value="Admin" style="shape=umlActor;verticalLabelPosition=bottom;verticalAlign=top;html=1;outlineConnect=0;" parent="1" vertex="1">
          <mxGeometry x="720" y="180" width="110" height="150" as="geometry" />
        </mxCell>
        <mxCell id="9rW0PvsvgF_CwK7unK1E-108" value="" style="endArrow=classic;html=1;rounded=0;exitX=0.5;exitY=0.5;exitDx=0;exitDy=0;exitPerimeter=0;entryX=0.058;entryY=0.325;entryDx=0;entryDy=0;entryPerimeter=0;" parent="1" source="9rW0PvsvgF_CwK7unK1E-20" target="9rW0PvsvgF_CwK7unK1E-35" edge="1">
          <mxGeometry width="50" height="50" relative="1" as="geometry">
            <mxPoint x="100" y="260" as="sourcePoint" />
            <mxPoint x="190" y="310" as="targetPoint" />
          </mxGeometry>
        </mxCell>
        <mxCell id="9rW0PvsvgF_CwK7unK1E-109" value="" style="endArrow=classic;html=1;rounded=0;exitX=0.5;exitY=0.5;exitDx=0;exitDy=0;exitPerimeter=0;entryX=1;entryY=0.5;entryDx=0;entryDy=0;" parent="1" source="9rW0PvsvgF_CwK7unK1E-63" target="9rW0PvsvgF_CwK7unK1E-35" edge="1">
          <mxGeometry width="50" height="50" relative="1" as="geometry">
            <mxPoint x="672.64" y="270" as="sourcePoint" />
            <mxPoint x="620" y="290" as="targetPoint" />
            <Array as="points">
              <mxPoint x="630" y="420" />
            </Array>
          </mxGeometry>
        </mxCell>
        <mxCell id="9rW0PvsvgF_CwK7unK1E-112" value="" style="endArrow=classic;html=1;rounded=0;exitX=0.5;exitY=0.5;exitDx=0;exitDy=0;exitPerimeter=0;entryX=0;entryY=0.5;entryDx=0;entryDy=0;" parent="1" source="9rW0PvsvgF_CwK7unK1E-20" target="9rW0PvsvgF_CwK7unK1E-33" edge="1">
          <mxGeometry width="50" height="50" relative="1" as="geometry">
            <mxPoint x="100" y="240" as="sourcePoint" />
            <mxPoint x="242" y="301" as="targetPoint" />
          </mxGeometry>
        </mxCell>
        <mxCell id="9rW0PvsvgF_CwK7unK1E-113" value="" style="endArrow=classic;html=1;rounded=0;exitX=0.5;exitY=0.5;exitDx=0;exitDy=0;exitPerimeter=0;" parent="1" source="9rW0PvsvgF_CwK7unK1E-20" target="9rW0PvsvgF_CwK7unK1E-111" edge="1">
          <mxGeometry width="50" height="50" relative="1" as="geometry">
            <mxPoint x="95" y="250" as="sourcePoint" />
            <mxPoint x="370" y="250" as="targetPoint" />
          </mxGeometry>
        </mxCell>
        <mxCell id="9rW0PvsvgF_CwK7unK1E-111" value="Create user&lt;div&gt;account&lt;/div&gt;" style="ellipse;whiteSpace=wrap;html=1;fillColor=#99FFFF;" parent="1" vertex="1">
          <mxGeometry x="280" y="49.999999999999986" width="120" height="80" as="geometry" />
        </mxCell>
        <mxCell id="9rW0PvsvgF_CwK7unK1E-118" value="extend" style="endArrow=open;endSize=12;dashed=1;html=1;rounded=0;exitX=0;exitY=0.5;exitDx=0;exitDy=0;entryX=0.97;entryY=0.414;entryDx=0;entryDy=0;entryPerimeter=0;" parent="1" source="9rW0PvsvgF_CwK7unK1E-62" target="9rW0PvsvgF_CwK7unK1E-33" edge="1">
          <mxGeometry x="-0.1125" y="-4" width="160" relative="1" as="geometry">
            <mxPoint x="299.36" y="270" as="sourcePoint" />
            <mxPoint x="370" y="220" as="targetPoint" />
            <mxPoint as="offset" />
            <Array as="points" />
          </mxGeometry>
        </mxCell>
        <mxCell id="9rW0PvsvgF_CwK7unK1E-119" value="&amp;lt;&amp;lt;include&amp;gt;&amp;gt;" style="endArrow=open;endSize=12;dashed=1;html=1;rounded=0;exitX=0.958;exitY=0.763;exitDx=0;exitDy=0;exitPerimeter=0;entryX=0.075;entryY=0.3;entryDx=0;entryDy=0;entryPerimeter=0;" parent="1" source="9rW0PvsvgF_CwK7unK1E-33" target="9rW0PvsvgF_CwK7unK1E-61" edge="1">
          <mxGeometry x="-0.1115" y="-3" width="160" relative="1" as="geometry">
            <mxPoint x="385" y="239.99999999999997" as="sourcePoint" />
            <mxPoint x="360" y="280" as="targetPoint" />
            <mxPoint as="offset" />
            <Array as="points" />
          </mxGeometry>
        </mxCell>
        <mxCell id="9rW0PvsvgF_CwK7unK1E-127" value="Create admin&lt;div&gt;account&lt;/div&gt;" style="ellipse;whiteSpace=wrap;html=1;fillColor=#FFCCE6;" parent="1" vertex="1">
          <mxGeometry x="410" y="53.53" width="130" height="80" as="geometry" />
        </mxCell>
        <mxCell id="9rW0PvsvgF_CwK7unK1E-128" value="" style="endArrow=classic;html=1;rounded=0;exitX=0.5;exitY=0.5;exitDx=0;exitDy=0;exitPerimeter=0;entryX=0.715;entryY=0.938;entryDx=0;entryDy=0;entryPerimeter=0;" parent="1" source="9rW0PvsvgF_CwK7unK1E-63" target="9rW0PvsvgF_CwK7unK1E-127" edge="1">
          <mxGeometry width="50" height="50" relative="1" as="geometry">
            <mxPoint x="560" y="201.83" as="sourcePoint" />
            <mxPoint x="610" y="151.83" as="targetPoint" />
          </mxGeometry>
        </mxCell>
        <mxCell id="9rW0PvsvgF_CwK7unK1E-129" value="Log in&lt;div&gt;as admin&lt;/div&gt;" style="ellipse;whiteSpace=wrap;html=1;fillColor=#FFCCE6;" parent="1" vertex="1">
          <mxGeometry x="510" y="165" width="100" height="75" as="geometry" />
        </mxCell>
        <mxCell id="9rW0PvsvgF_CwK7unK1E-130" value="" style="endArrow=classic;html=1;rounded=0;entryX=1;entryY=0.5;entryDx=0;entryDy=0;exitX=0.5;exitY=0.5;exitDx=0;exitDy=0;exitPerimeter=0;" parent="1" source="9rW0PvsvgF_CwK7unK1E-63" target="9rW0PvsvgF_CwK7unK1E-129" edge="1">
          <mxGeometry width="50" height="50" relative="1" as="geometry">
            <mxPoint x="730" y="260" as="sourcePoint" />
            <mxPoint x="573" y="135" as="targetPoint" />
          </mxGeometry>
        </mxCell>
        <mxCell id="9rW0PvsvgF_CwK7unK1E-150" value="&amp;lt;&amp;lt;include&amp;gt;&amp;gt;" style="endArrow=open;endSize=12;dashed=1;html=1;rounded=0;exitX=0.08;exitY=0.693;exitDx=0;exitDy=0;exitPerimeter=0;entryX=1;entryY=0;entryDx=0;entryDy=0;" parent="1" source="9rW0PvsvgF_CwK7unK1E-129" target="9rW0PvsvgF_CwK7unK1E-61" edge="1">
          <mxGeometry x="-0.0987" width="160" relative="1" as="geometry">
            <mxPoint x="480" y="211.5" as="sourcePoint" />
            <mxPoint x="430" y="238.5" as="targetPoint" />
            <mxPoint as="offset" />
            <Array as="points" />
          </mxGeometry>
        </mxCell>
        <mxCell id="9rW0PvsvgF_CwK7unK1E-151" value="extend" style="endArrow=open;endSize=12;dashed=1;html=1;rounded=0;exitX=1;exitY=0.5;exitDx=0;exitDy=0;" parent="1" source="9rW0PvsvgF_CwK7unK1E-62" target="9rW0PvsvgF_CwK7unK1E-129" edge="1">
          <mxGeometry x="-0.1125" y="-4" width="160" relative="1" as="geometry">
            <mxPoint x="360" y="210" as="sourcePoint" />
            <mxPoint x="308" y="224" as="targetPoint" />
            <mxPoint as="offset" />
            <Array as="points" />
          </mxGeometry>
        </mxCell>
        <mxCell id="9rW0PvsvgF_CwK7unK1E-152" value="" style="endArrow=classic;html=1;rounded=0;exitX=0.65;exitY=0.987;exitDx=0;exitDy=0;exitPerimeter=0;" parent="1" source="9rW0PvsvgF_CwK7unK1E-129" edge="1">
          <mxGeometry width="50" height="50" relative="1" as="geometry">
            <mxPoint x="400" y="390" as="sourcePoint" />
            <mxPoint x="590" y="310" as="targetPoint" />
          </mxGeometry>
        </mxCell>
        <mxCell id="9rW0PvsvgF_CwK7unK1E-153" value="" style="endArrow=classic;html=1;rounded=0;exitX=0.35;exitY=1.027;exitDx=0;exitDy=0;exitPerimeter=0;entryX=0.7;entryY=0.017;entryDx=0;entryDy=0;entryPerimeter=0;" parent="1" source="9rW0PvsvgF_CwK7unK1E-129" target="9rW0PvsvgF_CwK7unK1E-37" edge="1">
          <mxGeometry width="50" height="50" relative="1" as="geometry">
            <mxPoint x="532.5" y="232.5" as="sourcePoint" />
            <mxPoint x="510" y="320" as="targetPoint" />
          </mxGeometry>
        </mxCell>
        <mxCell id="9rW0PvsvgF_CwK7unK1E-156" value="" style="endArrow=classic;html=1;rounded=0;entryX=0.5;entryY=0;entryDx=0;entryDy=0;" parent="1" source="9rW0PvsvgF_CwK7unK1E-33" target="9rW0PvsvgF_CwK7unK1E-34" edge="1">
          <mxGeometry width="50" height="50" relative="1" as="geometry">
            <mxPoint x="260" y="260" as="sourcePoint" />
            <mxPoint x="402" y="411" as="targetPoint" />
          </mxGeometry>
        </mxCell>
        <mxCell id="9rW0PvsvgF_CwK7unK1E-158" value="&amp;lt;&amp;lt;include&amp;gt;&amp;gt;" style="endArrow=open;endSize=12;dashed=1;html=1;rounded=0;exitX=0.08;exitY=0.693;exitDx=0;exitDy=0;exitPerimeter=0;" parent="1" target="9rW0PvsvgF_CwK7unK1E-36" edge="1">
          <mxGeometry x="0.0699" width="160" relative="1" as="geometry">
            <mxPoint x="528" y="227" as="sourcePoint" />
            <mxPoint x="428" y="269" as="targetPoint" />
            <mxPoint as="offset" />
            <Array as="points">
              <mxPoint x="420" y="350" />
            </Array>
          </mxGeometry>
        </mxCell>
        <mxCell id="9rW0PvsvgF_CwK7unK1E-159" value="&amp;lt;&amp;lt;include&amp;gt;&amp;gt;" style="endArrow=open;endSize=12;dashed=1;html=1;rounded=0;entryX=0.067;entryY=0.25;entryDx=0;entryDy=0;entryPerimeter=0;" parent="1" target="9rW0PvsvgF_CwK7unK1E-36" edge="1">
          <mxGeometry x="-0.1475" y="-3" width="160" relative="1" as="geometry">
            <mxPoint x="425" y="530" as="sourcePoint" />
            <mxPoint x="485" y="557" as="targetPoint" />
            <mxPoint as="offset" />
            <Array as="points" />
          </mxGeometry>
        </mxCell>
      </root>
    </mxGraphModel>
  </diagram>
</mxfile>
